<svg width="26" height="26" viewBox="0 0 26 26" fill="none" xmlns="http://www.w3.org/2000/svg">
<path d="M4.98332 14.2025L11.2558 10.725C13.3033 9.58751 16.445 12.6533 15.275 14.7442L11.7867 21.0383C9.53332 25.09 0.855822 16.4992 4.98332 14.2025Z" stroke="#000DFF" stroke-width="1.67" stroke-linecap="round" stroke-linejoin="round"/>
<path d="M11.375 10.2917L10.2917 7.81083C9.96669 7.02 9.53335 6.5 8.66669 6.5H4.87502C3.02252 6.5 2.16669 7.04167 2.16669 9.20833C2.25752 11.1516 3.02382 13.0022 4.33335 14.4408" stroke="#000DFF" stroke-width="1.67" stroke-linecap="round" stroke-linejoin="round"/>
<path d="M8.66669 6.49999C8.66669 4.82082 8.92669 2.16666 6.50002 2.16666C4.33335 2.16666 3.79169 4.51749 3.79169 6.49999" stroke="#000DFF" stroke-width="1.67" stroke-linecap="round" stroke-linejoin="round"/>
<path d="M15.7083 14.625L18.1891 15.7083C18.98 16.0333 19.5 16.4667 19.5 17.3333V21.125C19.5 22.9775 18.9583 23.8333 16.7916 23.8333C14.8484 23.7425 12.9978 22.9762 11.5591 21.6667" stroke="#000DFF" stroke-width="1.67" stroke-linecap="round" stroke-linejoin="round"/>
<path d="M19.5 17.3333C21.1792 17.3333 23.8333 17.0733 23.8333 19.5C23.8333 21.6667 21.4825 22.2083 19.5 22.2083" stroke="#000DFF" stroke-width="1.67" stroke-linecap="round" stroke-linejoin="round"/>
</svg>
