<svg width="26" height="26" viewBox="0 0 26 26" fill="none" xmlns="http://www.w3.org/2000/svg">
<path d="M4.33334 6.49999L13 2.16666L21.6667 6.49999" stroke="#004DFF" stroke-width="1.67" stroke-linecap="round" stroke-linejoin="round"/>
<path d="M19.5 10.8333L23.8333 13V21.6667C23.8333 22.2413 23.605 22.7924 23.1987 23.1987C22.7924 23.6051 22.2413 23.8333 21.6667 23.8333H4.33332C3.75869 23.8333 3.20759 23.6051 2.80126 23.1987C2.39493 22.7924 2.16666 22.2413 2.16666 21.6667V13L6.49999 10.8333" stroke="#004DFF" stroke-width="1.67" stroke-linecap="round" stroke-linejoin="round"/>
<path d="M15.1667 23.8333V19.5C15.1667 18.9254 14.9384 18.3743 14.5321 17.9679C14.1257 17.5616 13.5746 17.3333 13 17.3333C12.4254 17.3333 11.8743 17.5616 11.4679 17.9679C11.0616 18.3743 10.8333 18.9254 10.8333 19.5V23.8333" stroke="#004DFF" stroke-width="1.67" stroke-linecap="round" stroke-linejoin="round"/>
<path d="M19.5 5.41666V23.8333" stroke="#004DFF" stroke-width="1.67" stroke-linecap="round" stroke-linejoin="round"/>
<path d="M6.5 5.41666V23.8333" stroke="#004DFF" stroke-width="1.67" stroke-linecap="round" stroke-linejoin="round"/>
<path d="M13 11.9167C14.1966 11.9167 15.1667 10.9466 15.1667 9.75001C15.1667 8.55339 14.1966 7.58334 13 7.58334C11.8034 7.58334 10.8333 8.55339 10.8333 9.75001C10.8333 10.9466 11.8034 11.9167 13 11.9167Z" stroke="#004DFF" stroke-width="1.67" stroke-linecap="round" stroke-linejoin="round"/>
</svg>
