<svg width="20" height="21" viewBox="0 0 20 21" fill="none" xmlns="http://www.w3.org/2000/svg">
<path d="M16.6667 8.83335C16.6667 13.8334 10 18.8334 10 18.8334C10 18.8334 3.33334 13.8334 3.33334 8.83335C3.33334 7.06524 4.03572 5.36955 5.28596 4.11931C6.53621 2.86907 8.2319 2.16669 10 2.16669C11.7681 2.16669 13.4638 2.86907 14.7141 4.11931C15.9643 5.36955 16.6667 7.06524 16.6667 8.83335Z" stroke="#FF8000" stroke-width="1.67" stroke-linecap="round" stroke-linejoin="round"/>
<path d="M10 11.3333C11.3807 11.3333 12.5 10.214 12.5 8.83331C12.5 7.4526 11.3807 6.33331 10 6.33331C8.61929 6.33331 7.5 7.4526 7.5 8.83331C7.5 10.214 8.61929 11.3333 10 11.3333Z" stroke="#FF8000" stroke-width="1.67" stroke-linecap="round" stroke-linejoin="round"/>
</svg>
