<svg width="20" height="21" viewBox="0 0 20 21" fill="none" xmlns="http://www.w3.org/2000/svg">
<path d="M16.6667 8.83332C16.6667 13.8333 10 18.8333 10 18.8333C10 18.8333 3.33334 13.8333 3.33334 8.83332C3.33334 7.06521 4.03572 5.36952 5.28596 4.11928C6.53621 2.86904 8.2319 2.16666 10 2.16666C11.7681 2.16666 13.4638 2.86904 14.7141 4.11928C15.9643 5.36952 16.6667 7.06521 16.6667 8.83332Z" stroke="#00D824" stroke-width="1.67" stroke-linecap="round" stroke-linejoin="round"/>
<path d="M10 11.3333C11.3807 11.3333 12.5 10.2141 12.5 8.83334C12.5 7.45263 11.3807 6.33334 10 6.33334C8.61929 6.33334 7.5 7.45263 7.5 8.83334C7.5 10.2141 8.61929 11.3333 10 11.3333Z" stroke="#00D824" stroke-width="1.67" stroke-linecap="round" stroke-linejoin="round"/>
</svg>
